<svg width="31" height="29" viewBox="0 0 31 29" fill="none" xmlns="http://www.w3.org/2000/svg">
<path d="M30.4793 12.6551L27.8605 10.3483V2.69918C27.8605 2.21248 27.4524 1.81786 26.9489 1.81786H20.645C20.1416 1.81786 19.7334 2.21242 19.7334 2.69918V3.18932L16.5706 0.403374C15.9601 -0.134477 15.0395 -0.134419 14.4293 0.403315L0.520573 12.6552C0.0315962 13.086 -0.130003 13.7497 0.108915 14.3461C0.347893 14.9425 0.929748 15.3278 1.59134 15.3278H3.81275V27.6032C3.81275 28.0899 4.22089 28.4845 4.7244 28.4845H12.348C12.8515 28.4845 13.2597 28.09 13.2597 27.6032V20.15H17.7402V27.6033C17.7402 28.09 18.1484 28.4846 18.6519 28.4846H26.2752C26.7787 28.4846 27.1869 28.09 27.1868 27.6033V15.3279H29.4087C30.0702 15.3279 30.6521 14.9425 30.8911 14.3462C31.13 13.7497 30.9684 13.086 30.4793 12.6551ZM26.2752 13.5652C25.7718 13.5652 25.3636 13.9598 25.3636 14.4466V26.722H19.5636V19.2687C19.5636 18.782 19.1554 18.3873 18.6519 18.3873H12.348C11.8446 18.3873 11.4364 18.7819 11.4364 19.2687V26.722H5.63599V14.4466C5.63599 13.9599 5.22785 13.5652 4.72434 13.5652H2.19451L15.5 1.84478L20.0311 5.83614C20.298 6.07121 20.6833 6.13179 21.0134 5.9909C21.3437 5.84984 21.5567 5.53365 21.5567 5.18468V3.58049H26.0373V10.7376C26.0373 10.9856 26.1453 11.222 26.335 11.389L28.8055 13.5652H26.2752Z" fill="white"/>
</svg>
