<?xml version="1.0"?>
<svg xmlns="http://www.w3.org/2000/svg" height="512px" viewBox="0 -1 459.087 459" width="512px"><g><path d="m228.070312 14.042969c37.671876 0 75.382813 10.679687 109.0625 30.886719 24.363282 14.640624 45.855469 33.589843 63.433594 55.921874l-65.421875-2.15625-.460937 13.992188 79.457031 2.621094c1.9375.074218 3.816406-.667969 5.179687-2.046875 1.367188-1.367188 2.109376-3.242188 2.046876-5.179688l-2.621094-79.453125-13.992188.460938 1.878906 57c-17.695312-21.027344-38.742187-38.992188-62.289062-53.164063-35.859375-21.507812-76.066406-32.8828122-116.273438-32.8828122-64.242187 0-123.464843 26.4921872-166.753906 74.5937502-19.335937 21.574219-34.710937 46.394531-45.417968 73.316406-10.398438 26.28125-15.898438 54-15.898438 80.164063h14c0-50.082032 21.578125-103.957032 57.722656-144.117188 40.597656-45.113281 96.121094-69.957031 156.347656-69.957031zm0 0" data-original="#000000" class="active-path" data-old_color="#000000" fill="#9D9C9C"/><path d="m387.367188 372.234375c-40.597657 45.113281-96.125 69.957031-156.347657 69.957031-37.671875 0-75.382812-10.679687-109.0625-30.886718-24.363281-14.640626-45.855469-33.589844-63.433593-55.921876l65.425781 2.15625.460937-13.992187-79.457031-2.621094c-1.9375-.078125-3.820313.664063-5.179687 2.046875-1.371094 1.367188-2.109376 3.246094-2.046876 5.179688l2.617188 79.457031 13.992188-.460937-1.878907-57c17.699219 21.027343 38.746094 38.988281 62.292969 53.160156 35.855469 21.511718 76.058594 32.882812 116.265625 32.882812 64.242187 0 123.464844-26.488281 166.757813-74.589844 19.332031-21.578124 34.707031-46.398437 45.414062-73.316406 10.398438-26.285156 15.898438-54 15.898438-80.167968h-14c.007812 50.082031-21.574219 103.957031-57.71875 144.117187zm0 0" data-original="#000000" class="active-path" data-old_color="#000000" fill="#9D9C9C"/><path d="m153.546875 105.117188h152v25h-152zm0 0" data-original="#000000" class="active-path" data-old_color="#000000" fill="#9D9C9C"/><path d="m283.929688 278.15625-54.253907-41.210938-52.941406 41.171876c-3.9375 3.117187-6.222656 7.871093-6.1875 12.890624v21.109376h120v-20.972657c-.082031-5.117187-2.523437-9.910156-6.617187-12.988281zm0 0" data-original="#000000" class="active-path" data-old_color="#000000" fill="#9D9C9C"/><path d="m169.546875 163.324219c-.011719 4.960937 2.242187 9.65625 6.125 12.746093l53.875 43.082032 53.871094-43.082032c3.882812-3.089843 6.136719-7.785156 6.128906-12.746093v-19.207031h-120zm0 0" data-original="#000000" class="active-path" data-old_color="#000000" fill="#9D9C9C"/><path d="m153.546875 326.117188h152v25h-152zm0 0" data-original="#000000" class="active-path" data-old_color="#000000" fill="#9D9C9C"/></g> </svg>
