<svg width="26" height="33" viewBox="0 0 26 33" fill="none" xmlns="http://www.w3.org/2000/svg">
<path d="M12.5383 15.1979C16.7283 15.1979 20.1372 11.789 20.1372 7.59893C20.1372 3.40888 16.7283 0 12.5383 0C8.34821 0 4.93933 3.40888 4.93933 7.59893C4.93933 11.789 8.34821 15.1979 12.5383 15.1979ZM12.5383 3.03957C15.0523 3.03957 17.0976 5.0849 17.0976 7.59893C17.0976 10.113 15.0523 12.1583 12.5383 12.1583C10.0242 12.1583 7.9789 10.113 7.9789 7.59893C7.9789 5.0849 10.0242 3.03957 12.5383 3.03957Z" fill="white"/>
<path d="M12.5382 18.2374C5.62463 18.2374 0 23.8621 0 30.7757V32.2955H25.0765V30.7757C25.0765 23.8621 19.4518 18.2374 12.5382 18.2374ZM3.16105 29.2559C3.89075 24.7383 7.81788 21.277 12.5382 21.277C17.2586 21.277 21.1858 24.7383 21.9154 29.2559H3.16105Z" fill="white"/>
</svg>
